REM DIRINDEX 1\2,1\4,1\3\5,1\3\6,1\3\7
REM DIRNAME folder01,folder02,folder03,folder04,folder05,folder06,folder07
TITLE ""
FILE "CD2Track32.mp3" MP3
  TRACK 01 AUDIO
    TITLE "0:"
    INDEX 01 00:00:00
  TRACK 02 AUDIO
    TITLE "5:cjc081_1718"
    INDEX 01 00:00:25
  TRACK 03 AUDIO
    TITLE "0:"
    INDEX 01 00:02:20
  TRACK 04 AUDIO
    TITLE "6:cjc081_1719"
    INDEX 01 00:02:73
  TRACK 05 AUDIO
    TITLE "0:"
    INDEX 01 00:05:32
  TRACK 06 AUDIO
    TITLE "5:cjc081_1720"
    INDEX 01 00:06:02
  TRACK 07 AUDIO
    TITLE "0:"
    INDEX 01 00:07:13
  TRACK 08 AUDIO
    TITLE "6:cjc081_1721"
    INDEX 01 00:07:60
  TRACK 09 AUDIO
    TITLE "0:"
    INDEX 01 00:09:32
  TRACK 10 AUDIO
    TITLE "5:cjc081_1722"
    INDEX 01 00:10:04
  TRACK 11 AUDIO
    TITLE "0:"
    INDEX 01 00:11:29
  TRACK 12 AUDIO
    TITLE "6:cjc081_1723"
    INDEX 01 00:12:03
  TRACK 13 AUDIO
    TITLE "0:"
    INDEX 01 00:16:12
  TRACK 14 AUDIO
    TITLE "5:cjc081_1724"
    INDEX 01 00:16:61
  TRACK 15 AUDIO
    TITLE "0:"
    INDEX 01 00:18:27
  TRACK 16 AUDIO
    TITLE "6:cjc081_1725"
    INDEX 01 00:18:74
  TRACK 17 AUDIO
    TITLE "0:"
    INDEX 01 00:20:04
  TRACK 18 AUDIO
    TITLE "5:cjc081_1726"
    INDEX 01 00:20:51
  TRACK 19 AUDIO
    TITLE "0:"
    INDEX 01 00:22:13
  TRACK 20 AUDIO
    TITLE "6:cjc081_1727"
    INDEX 01 00:22:60
  TRACK 21 AUDIO
    TITLE "0:"
    INDEX 01 00:24:47
  TRACK 22 AUDIO
    TITLE "5:cjc081_1728"
    INDEX 01 00:25:17
  TRACK 23 AUDIO
    TITLE "0:"
    INDEX 01 00:26:54
  TRACK 24 AUDIO
    TITLE "6:cjc081_1729"
    INDEX 01 00:27:22
  TRACK 25 AUDIO
    TITLE "0:"
    INDEX 01 00:28:60
  TRACK 26 AUDIO
    TITLE "5:cjc081_1730"
    INDEX 01 00:29:29
  TRACK 27 AUDIO
    TITLE "0:"
    INDEX 01 00:30:38
  TRACK 28 AUDIO
    TITLE "6:cjc081_1731"
    INDEX 01 00:31:12
  TRACK 29 AUDIO
    TITLE "0:"
    INDEX 01 00:32:09
  TRACK 30 AUDIO
    TITLE "5:cjc081_1732"
    INDEX 01 00:32:56
  TRACK 31 AUDIO
    TITLE "0:"
    INDEX 01 00:34:22
  TRACK 32 AUDIO
    TITLE "6:cjc081_1733"
    INDEX 01 00:34:67
  TRACK 33 AUDIO
    TITLE "0:"
    INDEX 01 00:36:62
  TRACK 34 AUDIO
    TITLE "5:cjc081_1734"
    INDEX 01 00:37:38
  TRACK 35 AUDIO
    TITLE "0:"
    INDEX 01 00:38:61
  TRACK 36 AUDIO
    TITLE "6:cjc081_1735"
    INDEX 01 00:39:37
  TRACK 37 AUDIO
    TITLE "0:"
    INDEX 01 00:41:57
  TRACK 38 AUDIO
    TITLE "5:cjc081_1736"
    INDEX 01 00:42:27
  TRACK 39 AUDIO
    TITLE "0:"
    INDEX 01 00:43:48
  TRACK 40 AUDIO
    TITLE "6:cjc081_1737"
    INDEX 01 00:44:22
  TRACK 41 AUDIO
    TITLE "0:"
    INDEX 01 00:47:54
  TRACK 42 AUDIO
    TITLE "5:cjc081_1738"
    INDEX 01 00:48:24
  TRACK 43 AUDIO
    TITLE "0:"
    INDEX 01 00:49:47
  TRACK 44 AUDIO
    TITLE "6:cjc081_1739"
    INDEX 01 00:50:19
  TRACK 45 AUDIO
    TITLE "0:"
    INDEX 01 00:51:34
  TRACK 46 AUDIO
    TITLE "5:cjc081_1740"
    INDEX 01 00:52:04
  TRACK 47 AUDIO
    TITLE "0:"
    INDEX 01 00:53:37
  TRACK 48 AUDIO
    TITLE "6:cjc081_1741"
    INDEX 01 00:54:07
  TRACK 49 AUDIO
    TITLE "0:"
    INDEX 01 00:55:28
  TRACK 50 AUDIO
    TITLE "5:cjc081_1742"
    INDEX 01 00:55:73
  TRACK 51 AUDIO
    TITLE "0:"
    INDEX 01 00:57:15
  TRACK 52 AUDIO
    TITLE "6:cjc081_1743"
    INDEX 01 00:57:58
  TRACK 53 AUDIO
    TITLE "0:"
    INDEX 01 00:59:61
  TRACK 54 AUDIO
    TITLE "5:cjc081_1744"
    INDEX 01 01:00:29
  TRACK 55 AUDIO
    TITLE "0:"
    INDEX 01 01:01:68
  TRACK 56 AUDIO
    TITLE "6:cjc081_1745"
    INDEX 01 01:02:36
  TRACK 57 AUDIO
    TITLE "0:"
    INDEX 01 01:03:61
  TRACK 58 AUDIO
    TITLE "5:cjc081_1746"
    INDEX 01 01:04:31
  TRACK 59 AUDIO
    TITLE "0:"
    INDEX 01 01:05:44
  TRACK 60 AUDIO
    TITLE "6:cjc081_1747"
    INDEX 01 01:06:18
  TRACK 61 AUDIO
    TITLE "0:"
    INDEX 01 01:07:27
  TRACK 62 AUDIO
    TITLE "7:cjc081_1748"
    INDEX 01 01:08:66
  TRACK 63 AUDIO
    TITLE "0:"
    INDEX 01 01:19:70
